<svg xmlns="http://www.w3.org/2000/svg" width="180" height="32.143" viewBox="0 0 180 32.143">
  <g id="Group_6" data-name="Group 6" transform="translate(-1251 207)">
    <path id="Path_21" data-name="Path 21" d="M43.274,15.051a7.457,7.457,0,0,1-7.407,5.514,7.462,7.462,0,0,1-7.723-7.3,7.4,7.4,0,0,1,7.683-7.257A7.416,7.416,0,0,1,43.274,11.6H39.353a3.78,3.78,0,0,0-3.546-2.445,3.949,3.949,0,0,0-3.92,4.093,4,4,0,0,0,3.94,4.168,3.888,3.888,0,0,0,3.526-2.367Z" transform="translate(1263.062 -204.794)"/>
    <path id="Path_22" data-name="Path 22" d="M40.667,7.471H47.8V10.23H43.81v1.91h3.873V14.9H43.81v2.108H47.8v2.758H40.667Z" transform="translate(1268.428 -204.259)"/>
    <path id="Path_23" data-name="Path 23" d="M47.69,7.471h2.83L55.486,15.2l.034-.033-.139-7.692h3.141V19.764H55.676l-4.9-7.476-.036.018.089,7.458H47.69Z" transform="translate(1271.438 -204.259)"/>
    <path id="Path_24" data-name="Path 24" d="M59.361,10.23H56.827V7.471h8.334V10.23H62.643v9.534H59.361Z" transform="translate(1275.354 -204.259)"/>
    <path id="Path_25" data-name="Path 25" d="M64.191,7.471h4.063c2.257,0,3.123.265,3.959.88a4.191,4.191,0,0,1,1.58,3.357,3.76,3.76,0,0,1-3.194,3.87l3.49,4.187h-3.75l-2.97-3.972h-.034v3.972H64.191Zm3.143,6.18H68.5c1.926,0,2.153-1.163,2.153-1.759,0-1.115-.85-1.662-2.119-1.662h-1.2Z" transform="translate(1278.51 -204.259)"/>
    <path id="Path_26" data-name="Path 26" d="M72.733,7.471h7.136V10.23H75.875v1.91h3.873V14.9H75.875v2.108h3.993v2.758H72.733Z" transform="translate(1282.171 -204.259)"/>
    <path id="Path_27" data-name="Path 27" d="M94.585,15.051a7.734,7.734,0,0,1-15.13-1.781A7.722,7.722,0,0,1,94.585,11.6H90.664a3.78,3.78,0,0,0-3.546-2.445,3.949,3.949,0,0,0-3.92,4.093,4,4,0,0,0,3.94,4.168,3.888,3.888,0,0,0,3.526-2.367Z" transform="translate(1285.052 -204.794)"/>
    <path id="Path_28" data-name="Path 28" d="M98.36,7.3a6.526,6.526,0,0,1,6.789,6.379,6.8,6.8,0,0,1-13.559.149,6.691,6.691,0,0,1,.5-2.624A6.671,6.671,0,0,1,98.36,7.3m.054,10a3.509,3.509,0,0,0,3.454-3.606,3.534,3.534,0,0,0-3.491-3.637,3.486,3.486,0,0,0-3.506,3.59A3.518,3.518,0,0,0,98.414,17.3" transform="translate(1290.252 -204.321)"/>
    <path id="Path_29" data-name="Path 29" d="M106.184,7.471V14.9c0,.83.053,2.342,1.667,2.342,1.631,0,1.631-1.361,1.631-2.342V7.471h3.281V14.9c0,2.059-.469,2.973-1.284,3.77A4.918,4.918,0,0,1,107.886,20a5.321,5.321,0,0,1-3.7-1.312c-1.061-1.114-1.286-1.979-1.286-3.788V7.471Z" transform="translate(1295.101 -204.259)"/>
    <path id="Path_30" data-name="Path 30" d="M112.015,7.471h4.063c2.257,0,3.123.265,3.959.88a4.191,4.191,0,0,1,1.58,3.357,3.76,3.76,0,0,1-3.2,3.87l3.491,4.187h-3.75l-2.97-3.972h-.034v3.972h-3.143Zm3.143,6.18h1.163c1.926,0,2.153-1.163,2.153-1.759,0-1.115-.85-1.662-2.119-1.662h-1.2Z" transform="translate(1299.006 -204.259)"/>
    <path id="Path_31" data-name="Path 31" d="M120.167,7.472V10.23H122.7v9.534h3.281V10.23H128.5V7.472Z" transform="translate(1302.499 -204.259)"/>
    <path id="Path_32" data-name="Path 32" d="M0,16.072C0,7.2,7.52,0,16.8,0s16.8,7.2,16.8,16.072S26.074,32.143,16.8,32.143,0,24.949,0,16.072M20.376,18.3A4.33,4.33,0,0,1,16.8,20.137a4.2,4.2,0,0,1-4.283-4.1,4.194,4.194,0,0,1,4.283-4.1,4.327,4.327,0,0,1,3.644,1.945h3.2A7.192,7.192,0,0,0,16.8,9.153a7.069,7.069,0,0,0-7.22,6.908,7.069,7.069,0,0,0,7.22,6.911A7.2,7.2,0,0,0,23.628,18.3Zm6.776,0A10.518,10.518,0,0,1,16.8,26.219,10.388,10.388,0,0,1,6.193,16.067,10.387,10.387,0,0,1,16.8,5.915a10.513,10.513,0,0,1,10.361,7.966H30.13A13.371,13.371,0,0,0,16.8,3.125c-7.471,0-13.529,5.8-13.529,12.943S9.329,29.011,16.8,29.011A13.373,13.373,0,0,0,30.121,18.3Z" transform="translate(1251 -207)"/>
  </g>
</svg>
