<svg xmlns="http://www.w3.org/2000/svg" width="280" height="205.359" viewBox="0 0 280 205.359">
  <g id="Group_4" data-name="Group 4" transform="translate(-619 -290)">
    <path id="Path_1" data-name="Path 1" d="M34.356,50.215c-2.474,0-5.239-1.018-10.332-8.222L9.689,21.912l-1.528,1.6V42.067c0,5.456.218,5.165,2.328,8.149H1.467C3.577,47.231,3.8,47.523,3.8,42.067V9.251c0-5.458-.218-5.167-2.328-8.151H10.49C8.38,4.084,8.161,3.792,8.161,9.251V20.965L23.441,4.812a3.69,3.69,0,0,0,1.237-2.182A2.612,2.612,0,0,0,24.024,1.1h9.314a17.859,17.859,0,0,0-8.295,5.167l-12.661,13.1L29.189,41.557c4.8,6.4,6.04,6.476,8.222,6.476a12.391,12.391,0,0,0,3.129-.583c-1.091,1.893-2.11,2.766-6.185,2.766" transform="translate(618.988 289.991)"/>
    <path id="Path_2" data-name="Path 2" d="M50.5,50.215c2.11-2.984,2.328-2.692,2.328-8.149V9.251c0-5.458-.218-5.167-2.328-8.151h9.023c-2.11,2.984-2.328,2.692-2.328,8.151V42.067c0,5.456.218,5.165,2.328,8.149Z" transform="translate(618.6 289.991)"/>
    <path id="Path_3" data-name="Path 3" d="M89.134,28.314c-3.275,0-5.966-1.893-5.966-2.692a.5.5,0,0,1,.509-.51c1.165,0,1.964,1.746,4.657,1.746a11.352,11.352,0,0,0,11.205-11.2c0-11.861-11.351-12.369-18.845-12.369V42.067c0,5.456.218,5.165,2.328,8.149H74c2.11-2.984,2.328-2.692,2.328-8.149V9.251c0-5.458-.218-5.167-2.328-8.151h8.8c8.149,0,21.1.875,21.1,13.825,0,8.659-6.985,13.389-14.771,13.389" transform="translate(618.413 289.991)"/>
    <path id="Path_4" data-name="Path 4" d="M141.616,50.215H113.457c3.566-2.4,3.566-4.439,3.566-8.149V9.251c0-5.458-.218-5.167-2.256-8.151h9.023c-2.183,2.984-2.4,2.692-2.4,8.151V40.1c0,5.53.509,7.931,7.567,7.931,11.351,0,14.116-5.748,16.154-7.568Z" transform="translate(618.1 289.991)"/>
    <path id="Path_5" data-name="Path 5" d="M155.072,50.215c2.11-2.984,2.328-2.692,2.328-8.149V9.251c0-5.458-.218-5.167-2.328-8.151h9.023c-2.11,2.984-2.328,2.692-2.328,8.151V42.067c0,5.456.218,5.165,2.328,8.149Z" transform="translate(617.77 289.991)"/>
    <path id="Path_6" data-name="Path 6" d="M220.969,7.5v43.8L186.043,10.852V43.813c0,4.73.582,4.875,1.892,6.4H181.6c1.31-1.528,1.892-1.673,1.892-6.4V8.013c-2.11-2.982-4.148-4.728-8.877-6.913H183.5l34.926,40.675V7.5c0-4.73-.582-4.875-1.892-6.4h6.33c-1.31,1.53-1.892,1.675-1.892,6.4" transform="translate(617.615 289.991)"/>
    <path id="Path_7" data-name="Path 7" d="M279.141,40.457v5.675c-2.764,0-9.75,5.167-17.389,5.167-9.532,0-24.74-6.839-24.74-25.83C237.012,10.623,248.363,0,262.189,0c5.819,0,11.788,2.4,15.133,2.4L274.7,10.844c-1.163-3.059-2.327-8.659-12.587-8.659-12.006,0-20.155,9.821-20.155,22.7,0,13.825,7.712,24.23,19.282,24.23a20.957,20.957,0,0,0,13.534-4.948v-3.71c0-4.948-.218-4.73-2.329-7.423h8.3c-1.6,2.692-1.6,2.474-1.6,7.423" transform="translate(617.121 290)"/>
    <path id="Path_8" data-name="Path 8" d="M13.243,129.41A21.7,21.7,0,0,1,0,124.9v-6.766c2.038,3.274,5.167,9.1,13.243,9.1,5.166,0,11.86-3.421,11.86-9.968,0-4.875-2.983-8.732-6.767-11.861-6.258-5.165-14.771-9.385-14.771-16.443A10.926,10.926,0,0,1,14.844,78.112c3.128,0,6.257,1.165,9.314,2.111v5.093C21.829,83.205,19.282,80.3,14.48,80.3c-3.711,0-7.277,2.545-7.277,6.473,0,7.423,10.478,10.4,16.59,17.173a17.175,17.175,0,0,1,4.583,11.788c0,6.984-5.893,13.679-15.134,13.679" transform="translate(619 289.381)"/>
    <path id="Path_9" data-name="Path 9" d="M71.643,86.189c-.581-3.71-.218-4.8-4.657-4.8H55.344V120.17c0,5.456.218,5.164,2.328,8.149H48.651c2.11-2.985,2.328-2.692,2.328-8.149V81.388H40.5c-4.583,0-5.093,1.163-8.659,4.22l3.784-7.5A10.264,10.264,0,0,0,41.011,79.2h27.5a33.279,33.279,0,0,0,7.13-1.091Z" transform="translate(618.747 289.381)"/>
    <path id="Path_10" data-name="Path 10" d="M93.752,86.115l-7.64,18.265H101.1Zm13.752,42.2c.727-.872,1.528-1.453,1.528-3.129a6.085,6.085,0,0,0-.582-2.182L101.9,106.562H85.166l-6.475,15.428a12.051,12.051,0,0,0-1.019,3.637c0,1.746.727,1.964,1.674,2.691H71.123c3.42-2.547,3.638-2.911,5.53-7.348L94.843,78.111,112.6,121.77c2.255,5.531,2.91,5.313,5.239,6.548Z" transform="translate(618.436 289.381)"/>
    <path id="Path_11" data-name="Path 11" d="M153.848,86.189c-.581-3.71-.218-4.8-4.657-4.8H137.549V120.17c0,5.456.218,5.164,2.328,8.149h-9.022c2.11-2.985,2.328-2.692,2.328-8.149V81.388H122.706c-4.583,0-5.093,1.163-8.659,4.22l3.784-7.5a10.264,10.264,0,0,0,5.385,1.091h27.5a33.279,33.279,0,0,0,7.13-1.091Z" transform="translate(618.096 289.381)"/>
    <path id="Path_12" data-name="Path 12" d="M163.971,128.326c2.11-2.983,2.328-2.691,2.328-8.148V87.362c0-5.458-.218-5.167-2.328-8.15h9.023c-2.11,2.983-2.328,2.691-2.328,8.15v32.817c0,5.456.218,5.165,2.328,8.148Z" transform="translate(617.7 289.372)"/>
    <path id="Path_13" data-name="Path 13" d="M204.485,81.023c-10.478,0-19.646,6.913-19.646,22.048,0,13.605,9.24,23.429,20.81,23.429,10.478,0,19.646-6.913,19.646-21.974,0-13.752-9.241-23.5-20.81-23.5m-.218,48.387c-13.9,0-23.43-11.423-23.43-24.812,0-14.77,10.4-26.486,25.1-26.486,13.825,0,23.357,11.351,23.357,24.885,0,14.625-10.4,26.413-25.03,26.413" transform="translate(617.566 289.381)"/>
    <path id="Path_14" data-name="Path 14" d="M277.717,85.617v43.8L242.79,88.964v32.961c0,4.73.581,4.875,1.891,6.4h-6.329c1.31-1.527,1.891-1.672,1.891-6.4v-35.8c-2.109-2.981-4.147-4.727-8.875-6.913h8.875l34.927,40.675V85.617c0-4.73-.581-4.875-1.891-6.406h6.329c-1.31,1.531-1.891,1.676-1.891,6.406" transform="translate(617.165 289.372)"/>
    <path id="Path_15" data-name="Path 15" d="M41.185,203.882c-5,1.573-7.289,2.715-15.435,2.715C13.532,206.6.314,197.023.314,181.945c0-17.434,15.148-25.722,27.795-25.722a69.237,69.237,0,0,1,13.5,2v8.288c-1.57-2.073-4.786-7.433-15-7.433-12.576,0-21.437,8.791-21.437,22.081,0,13.074,9.432,23.294,22.365,23.294,8.932,0,12.433-4.717,14.5-7.075Z" transform="translate(618.997 288.761)"/>
    <path id="Path_16" data-name="Path 16" d="M71.226,159.081c-10.289,0-19.292,6.788-19.292,21.652,0,13.361,9.073,23.007,20.436,23.007,10.289,0,19.292-6.789,19.292-21.579,0-13.506-9.074-23.081-20.436-23.081M71.012,206.6C57.364,206.6,48,195.381,48,182.232c0-14.505,10.218-26.009,24.651-26.009,13.577,0,22.938,11.149,22.938,24.439,0,14.361-10.218,25.936-24.581,25.936" transform="translate(618.619 288.761)"/>
    <path id="Path_17" data-name="Path 17" d="M143.2,163.591v43.015l-34.3-39.727v32.367c0,4.644.571,4.789,1.858,6.289h-6.216c1.287-1.5,1.857-1.645,1.857-6.289V164.092c-2.071-2.929-4.072-4.644-8.716-6.786H106.4l34.3,39.94V163.591c0-4.644-.571-4.786-1.857-6.285h6.215c-1.286,1.5-1.857,1.641-1.857,6.285" transform="translate(618.225 288.753)"/>
    <path id="Path_18" data-name="Path 18" d="M161.346,159.448V193.89c0,6.859,0,9.5,6.217,9.5,12.074,0,21.293-6.5,21.293-20.079,0-19.934-15.291-23.864-27.51-23.864m3.144,46.088H153.557c3.5-2.357,3.5-4.36,3.5-8V165.307c0-3.573,0-5.715-3.5-8h7.789c24.795,0,32.368,12.574,32.368,25.506,0,20.295-18.15,22.723-29.224,22.723" transform="translate(617.782 288.753)"/>
    <path id="Path_19" data-name="Path 19" d="M223.908,159.081c-10.289,0-19.292,6.788-19.292,21.652,0,13.361,9.074,23.007,20.436,23.007,10.289,0,19.293-6.789,19.293-21.579,0-13.506-9.075-23.081-20.437-23.081m-.214,47.516c-13.648,0-23.008-11.216-23.008-24.365,0-14.505,10.218-26.009,24.651-26.009,13.577,0,22.937,11.149,22.937,24.439,0,14.361-10.217,25.936-24.58,25.936" transform="translate(617.409 288.761)"/>
    <path id="Path_20" data-name="Path 20" d="M267.152,206.6a21.3,21.3,0,0,1-13-4.429v-6.646c2,3.215,5.072,8.933,13,8.933,5.072,0,11.648-3.36,11.648-9.791,0-4.786-2.931-8.572-6.646-11.646-6.144-5.072-14.506-9.216-14.506-16.15a10.729,10.729,0,0,1,11.074-10.646c3.073,0,6.147,1.145,9.147,2.073v5c-2.285-2.073-4.787-4.931-9.5-4.931-3.644,0-7.146,2.5-7.146,6.359,0,7.289,10.291,10.217,16.292,16.863a16.868,16.868,0,0,1,4.5,11.575c0,6.86-5.788,13.433-14.863,13.433" transform="translate(616.985 288.761)"/>
    <rect id="Rectangle_1" data-name="Rectangle 1" width="277.408" height="2.598" transform="translate(620.456 353.097)"/>
    <rect id="Rectangle_2" data-name="Rectangle 2" width="277.408" height="2.598" transform="translate(620.456 430.588)"/>
  </g>
</svg>
